<svg width="21" height="20" viewBox="0 0 21 20" fill="none" xmlns="http://www.w3.org/2000/svg">
<path d="M18.198 3.28333C17.1063 6.00833 14.6146 9.56666 12.2396 11.8917C11.898 9.74166 10.1813 8.05833 8.01465 7.75833C10.348 5.37499 13.9313 2.84999 16.6646 1.74999C17.148 1.56666 17.6313 1.70833 17.9313 2.00833C18.248 2.32499 18.398 2.79999 18.198 3.28333Z" fill="blue" fill-opacity="0.6"/>
<path opacity="0.4" d="M12.2397 11.8917C11.823 12.3 11.4064 12.675 11.0064 12.9917L9.36471 14.3083C9.15638 14.4583 8.94805 14.5833 8.71471 14.6833C8.71471 14.525 8.69805 14.3667 8.68138 14.2C8.58971 13.5083 8.27305 12.85 7.71471 12.2917C7.13971 11.725 6.45638 11.4 5.74805 11.3083C5.58138 11.2917 5.40638 11.2833 5.24805 11.2917C5.33971 11.0333 5.48138 10.7917 5.65638 10.5917L6.95638 8.95C7.26471 8.55833 7.62305 8.15833 8.01471 7.75833C10.1814 8.05833 11.898 9.74166 12.2397 11.8917Z" fill="blue" fill-opacity="0.6"/>
<path d="M8.7145 14.6833C8.7145 15.6 8.3645 16.475 7.69783 17.1333C7.1895 17.65 6.50617 18 5.67283 18.1L3.63117 18.325C2.5145 18.45 1.55617 17.4917 1.68117 16.3667L1.90617 14.3167C2.10617 12.4917 3.63117 11.325 5.24783 11.2917C5.40617 11.2833 5.58117 11.2917 5.74783 11.3083C6.45617 11.4 7.1395 11.725 7.7145 12.2917C8.27283 12.85 8.5895 13.5083 8.68117 14.2C8.69783 14.3667 8.7145 14.525 8.7145 14.6833Z" fill="blue" fill-opacity="0.6"/>
</svg>
