<svg width="25" height="24" viewBox="0 0 25 24" fill="none" xmlns="http://www.w3.org/2000/svg">
<path opacity="0.2" d="M7.26005 22H17.74C20.5 22 21.6 20.31 21.73 18.25L22.25 9.99C22.39 7.83 20.67 6 18.5 6C17.89 6 17.33 5.65 17.05 5.11L16.33 3.66C15.87 2.75 14.67 2 13.65 2H11.36C10.33 2 9.13005 2.75 8.67005 3.66L7.95005 5.11C7.67004 5.65 7.11005 6 6.50005 6C4.33005 6 2.61005 7.83 2.75005 9.99L3.27005 18.25C3.39005 20.31 4.50005 22 7.26005 22Z" fill="#211B42" fill-opacity="0.6"/>
<path d="M14 8.75H11C10.59 8.75 10.25 8.41 10.25 8C10.25 7.59 10.59 7.25 11 7.25H14C14.41 7.25 14.75 7.59 14.75 8C14.75 8.41 14.41 8.75 14 8.75Z" fill="#211B42" fill-opacity="0.6"/>
<path d="M12.5 18.13C14.3667 18.13 15.88 16.6167 15.88 14.75C15.88 12.8833 14.3667 11.37 12.5 11.37C10.6333 11.37 9.12 12.8833 9.12 14.75C9.12 16.6167 10.6333 18.13 12.5 18.13Z" fill="#211B42" fill-opacity="0.6"/>
</svg>
