<svg width="24" height="24" viewBox="0 0 24 24" fill="none" xmlns="http://www.w3.org/2000/svg">
<rect opacity="0.2" x="2" y="4.5" width="20" height="16" rx="2" fill="#6D5FC9"/>
<path d="M5.71729 16.5V9.22727H7.03476V12.3061H10.4048V9.22727H11.7258V16.5H10.4048V13.4105H7.03476V16.5H5.71729Z" fill="#6D5FC9"/>
<path d="M15.6232 16.5H13.1587V9.22727H15.6729C16.395 9.22727 17.0152 9.37287 17.5337 9.66406C18.0545 9.95289 18.4546 10.3684 18.734 10.9105C19.0133 11.4527 19.153 12.1013 19.153 12.8565C19.153 13.6141 19.0121 14.2652 18.7304 14.8097C18.4511 15.3542 18.0474 15.772 17.5195 16.0632C16.9939 16.3544 16.3618 16.5 15.6232 16.5ZM14.4762 15.3601H15.5593C16.0659 15.3601 16.4885 15.2678 16.827 15.0831C17.1656 14.8961 17.4201 14.6179 17.5905 14.2486C17.761 13.8769 17.8462 13.4129 17.8462 12.8565C17.8462 12.3002 17.761 11.8385 17.5905 11.4716C17.4201 11.1023 17.1679 10.8265 16.8341 10.6442C16.5027 10.4595 16.0907 10.3672 15.5983 10.3672H14.4762V15.3601Z" fill="#6D5FC9"/>
</svg>
