<svg width="24" height="24" viewBox="0 0 24 24" fill="none" xmlns="http://www.w3.org/2000/svg">
<path opacity="0.2" fill-rule="evenodd" clip-rule="evenodd" d="M12 16.5C15.866 16.5 19 13.366 19 9.5C19 5.63401 15.866 2.5 12 2.5C8.13399 2.5 5 5.63401 5 9.5C5 13.366 8.13399 16.5 12 16.5ZM12 12.4167C13.6109 12.4167 14.9167 11.1108 14.9167 9.5C14.9167 7.88917 13.6109 6.58333 12 6.58333C10.3891 6.58333 9.08333 7.88917 9.08333 9.5C9.08333 11.1108 10.3891 12.4167 12 12.4167Z" fill="#6D5FC9"/>
<path d="M15.9968 17.286C14.7988 17.9022 13.44 18.25 12 18.25C10.5999 18.25 9.27662 17.9212 8.10312 17.3365C7.91584 17.4852 7.774 17.6916 7.70578 17.9341L7.37766 19.1008C7.16831 19.845 7.72757 20.5833 8.50074 20.5833H15.7772C16.5918 20.5833 17.1556 19.7697 16.8695 19.007L16.432 17.8404C16.3456 17.6097 16.1912 17.4185 15.9968 17.286Z" fill="#6D5FC9"/>
</svg>
