<svg width="24" height="24" viewBox="0 0 24 24" fill="none" xmlns="http://www.w3.org/2000/svg">
<path opacity="0.2" d="M19.1201 8.62C18.7301 8.62 18.4201 8.93 18.4201 9.32V10.9C18.4201 14.44 15.5401 17.32 12.0001 17.32C8.46005 17.32 5.58005 14.44 5.58005 10.9V9.31C5.58005 8.92 5.27005 8.61 4.88005 8.61C4.49005 8.61 4.18005 8.92 4.18005 9.31V10.89C4.18005 14.96 7.31005 18.31 11.3001 18.67V20.8C11.3001 21.19 11.6101 21.5 12.0001 21.5C12.3901 21.5 12.7001 21.19 12.7001 20.8V18.67C16.6801 18.32 19.8201 14.96 19.8201 10.89V9.31C19.8101 8.93 19.5001 8.62 19.1201 8.62Z" fill="#6D5FC9"/>
<path d="M12.0001 1.5C9.56008 1.5 7.58008 3.48 7.58008 5.92V11.04C7.58008 13.48 9.56008 15.46 12.0001 15.46C14.4401 15.46 16.4201 13.48 16.4201 11.04V5.92C16.4201 3.48 14.4401 1.5 12.0001 1.5ZM13.3101 8.45C13.2401 8.71 13.0101 8.88 12.7501 8.88C12.7001 8.88 12.6501 8.87 12.6001 8.86C12.2101 8.75 11.8001 8.75 11.4101 8.86C11.0901 8.95 10.7801 8.76 10.7001 8.45C10.6101 8.14 10.8001 7.82 11.1101 7.74C11.7001 7.58 12.3201 7.58 12.9101 7.74C13.2101 7.82 13.3901 8.14 13.3101 8.45ZM13.8401 6.51C13.7501 6.75 13.5301 6.89 13.2901 6.89C13.2201 6.89 13.1601 6.88 13.0901 6.86C12.3901 6.6 11.6101 6.6 10.9101 6.86C10.6101 6.97 10.2701 6.81 10.1601 6.51C10.0501 6.21 10.2101 5.87 10.5101 5.77C11.4701 5.42 12.5301 5.42 13.4901 5.77C13.7901 5.88 13.9501 6.21 13.8401 6.51Z" fill="#6D5FC9"/>
</svg>
