<svg width="40" height="48" viewBox="0 0 40 48" fill="none" xmlns="http://www.w3.org/2000/svg">
<path opacity="0.2" d="M36.6666 17.3333V30.9833C36.6666 37.05 33.05 40.6667 26.9833 40.6667H13.0166C6.94998 40.6667 3.33331 37.05 3.33331 30.9833V17.35L36.6666 17.3333Z" fill="#6D5FC9"/>
<path d="M28.8763 24.9556H22.8151C22.105 24.9556 21.5162 24.3813 21.5162 23.6889C21.5162 22.9964 22.105 22.4222 22.8151 22.4222H28.8763C29.5863 22.4222 30.1751 22.9964 30.1751 23.6889C30.1751 24.3813 29.5863 24.9556 28.8763 24.9556Z" fill="#6D5FC9"/>
<path d="M16.9271 25.3778C15.9746 25.3778 15.1953 24.6178 15.1953 23.6889C15.1953 22.76 15.9573 22 16.9271 22H16.9444C17.8969 22 18.6762 22.76 18.6762 23.6889C18.6762 24.6178 17.8969 25.3778 16.9271 25.3778Z" fill="#6D5FC9"/>
<path d="M11.7318 25.3778C10.7793 25.3778 10 24.6178 10 23.6889C10 22.76 10.762 22 11.7318 22C12.6842 22 13.4635 22.76 13.4635 23.6889C13.4635 24.6178 12.7016 25.3778 11.7318 25.3778Z" fill="#6D5FC9"/>
<path d="M28.8763 34.2444H11.5932C10.8832 34.2444 10.2771 33.6702 10.2771 32.9778C10.2771 32.2853 10.8486 31.7111 11.5586 31.7111H28.8763C29.5863 31.7111 30.1751 32.2853 30.1751 32.9778C30.1751 33.6702 29.5863 34.2444 28.8763 34.2444Z" fill="#6D5FC9"/>
<path d="M36.6666 17.0167V17.3333L3.33331 17.35V17.0167C3.33331 10.95 6.94998 7.33333 13.0166 7.33333H26.9833C33.05 7.33333 36.6666 10.95 36.6666 17.0167Z" fill="#6D5FC9"/>
</svg>
