<svg width="40" height="48" viewBox="0 0 40 48" fill="none" xmlns="http://www.w3.org/2000/svg">
<path opacity="0.2" d="M22.5181 15.144H13.641C12.2676 15.144 11.1439 16.2677 11.1439 17.6411V26.5182C11.1439 30.1265 14.0655 33.048 17.6738 33.048H26.5509C27.9243 33.048 29.0479 31.9244 29.0479 30.551V21.6739C29.0479 18.0656 26.1264 15.144 22.5181 15.144Z" fill="#6D5FC9"/>
<path d="M16.0676 37.524H33.524V20.0676C33.524 12.5863 31.6057 10.668 24.1244 10.668H6.66797V28.1244C6.66797 35.6057 8.58626 37.524 16.0676 37.524Z" stroke="#6D5FC9" stroke-width="1.5" stroke-linecap="round" stroke-linejoin="round"/>
<path d="M6.47601 10.476V6" stroke="#6D5FC9" stroke-width="1.5" stroke-miterlimit="10" stroke-linecap="round" stroke-linejoin="round"/>
<path d="M6.47601 10.476H2" stroke="#6D5FC9" stroke-width="1.5" stroke-miterlimit="10" stroke-linecap="round" stroke-linejoin="round"/>
<path d="M33.5239 37.524V42" stroke="#6D5FC9" stroke-width="1.5" stroke-miterlimit="10" stroke-linecap="round" stroke-linejoin="round"/>
<path d="M33.5239 37.524H37.9999" stroke="#6D5FC9" stroke-width="1.5" stroke-miterlimit="10" stroke-linecap="round" stroke-linejoin="round"/>
</svg>
