<svg width="40" height="48" viewBox="0 0 40 48" fill="none" xmlns="http://www.w3.org/2000/svg">
<path opacity="0.2" fill-rule="evenodd" clip-rule="evenodd" d="M20 32C26.6274 32 32 26.6274 32 20C32 13.3726 26.6274 8 20 8C13.3726 8 8 13.3726 8 20C8 26.6274 13.3726 32 20 32ZM20 25C22.7615 25 25 22.7614 25 20C25 17.2386 22.7615 15 20 15C17.2385 15 15 17.2386 15 20C15 22.7614 17.2385 25 20 25Z" fill="#211B42" fill-opacity="0.4"/>
<path d="M26.8515 33.3474C24.7978 34.4037 22.4685 35 20 35C17.5998 35 15.3313 34.4363 13.3196 33.434C12.9985 33.689 12.7554 34.0428 12.6384 34.4585L12.0759 36.4585C11.717 37.7343 12.6758 39 14.0012 39H26.4751C27.8716 39 28.8381 37.6053 28.3476 36.2978L27.5976 34.2978C27.4494 33.9024 27.1848 33.5746 26.8515 33.3474Z" fill="#211B42" fill-opacity="0.4"/>
</svg>
