<svg width="36" height="49" viewBox="0 0 36 49" fill="none" xmlns="http://www.w3.org/2000/svg">
<path opacity="0.2" d="M28.8582 1.01104C28.0443 0.892814 27.1091 0.842148 25.7929 0.842148H10.207C8.90818 0.842148 7.95571 0.892814 7.19373 0.994148C1.3923 1.61904 0.249329 4.97993 0.249329 10.5533V39.2889C0.249329 44.8622 1.3923 48.2231 7.14178 48.8311C7.95571 48.9493 8.89086 49 10.207 49H25.7929C27.0918 49 28.0442 48.9493 28.8062 48.848C34.6077 48.2231 35.7506 44.8791 35.7506 39.2889V10.5533C35.7506 4.97993 34.6077 1.61904 28.8582 1.01104Z" fill="#6D5FC9"/>
<path d="M26.6589 13.5088H20.5977C19.8876 13.5088 19.2988 12.9346 19.2988 12.2421C19.2988 11.5497 19.8876 10.9755 20.5977 10.9755H26.6589C27.3689 10.9755 27.9577 11.5497 27.9577 12.2421C27.9577 12.9346 27.3689 13.5088 26.6589 13.5088Z" fill="#6D5FC9"/>
<path d="M26.6589 42.4023H20.5977C19.8876 42.4023 19.2988 41.8281 19.2988 41.1356C19.2988 40.4432 19.8876 39.869 20.5977 39.869H26.6589C27.3689 39.869 27.9577 40.4432 27.9577 41.1356C27.9577 41.8281 27.3689 42.4023 26.6589 42.4023Z" fill="#6D5FC9"/>
<path d="M15.5163 42.4023H9.45508C8.74505 42.4023 8.15625 41.8281 8.15625 41.1356C8.15625 40.4432 8.74505 39.869 9.45508 39.869H15.5163C16.2263 39.869 16.8151 40.4432 16.8151 41.1356C16.8151 41.8281 16.2263 42.4023 15.5163 42.4023Z" fill="#6D5FC9"/>
<path d="M14.7096 13.931C13.7572 13.931 12.9779 13.171 12.9779 12.2421C12.9779 11.3133 13.7399 10.5533 14.7096 10.5533H14.727C15.6794 10.5533 16.4587 11.3133 16.4587 12.2421C16.4587 13.171 15.6794 13.931 14.7096 13.931Z" fill="#6D5FC9"/>
<path d="M9.51433 13.931C8.56186 13.931 7.78256 13.171 7.78256 12.2421C7.78256 11.3133 8.54454 10.5533 9.51433 10.5533C10.4668 10.5533 11.2461 11.3133 11.2461 12.2421C11.2461 13.171 10.4841 13.931 9.51433 13.931Z" fill="#6D5FC9"/>
<path d="M26.6589 22.7977H9.37581C8.66578 22.7977 8.05966 22.2235 8.05966 21.531C8.05966 20.8386 8.63115 20.2644 9.34117 20.2644H26.6589C27.3689 20.2644 27.9577 20.8386 27.9577 21.531C27.9577 22.2235 27.3689 22.7977 26.6589 22.7977Z" fill="#6D5FC9"/>
<path d="M19.1621 28.6H9.37581C8.66578 28.6 8.05966 28.0258 8.05966 27.3333C8.05966 26.6409 8.63115 26.0667 9.34117 26.0667H19.1621C19.8721 26.0667 20.4609 26.6409 20.4609 27.3333C20.4609 28.0258 19.8721 28.6 19.1621 28.6Z" fill="#6D5FC9"/>
<path d="M19.1621 34.4023H9.37581C8.66578 34.4023 8.05966 33.8281 8.05966 33.1356C8.05966 32.4432 8.63115 31.869 9.34117 31.869H19.1621C19.8721 31.869 20.4609 32.4432 20.4609 33.1356C20.4609 33.8281 19.8721 34.4023 19.1621 34.4023Z" fill="#6D5FC9"/>
</svg>
