<svg width="21" height="20" viewBox="0 0 21 20" fill="none" xmlns="http://www.w3.org/2000/svg">
<path d="M15.2024 8.46154H12.51V6.03846C12.51 5.47077 11.987 5 11.3562 5C10.7254 5 10.2024 5.47077 10.2024 6.03846V8.46154H7.51005C6.87928 8.46154 6.3562 8.93231 6.3562 9.5C6.3562 10.0677 6.87928 10.5385 7.51005 10.5385H10.2024V12.9615C10.2024 13.5292 10.7254 14 11.3562 14C11.987 14 12.51 13.5292 12.51 12.9615V10.5385H15.2024C15.8331 10.5385 16.3562 10.0677 16.3562 9.5C16.3562 8.93231 15.8331 8.46154 15.2024 8.46154Z" fill="#211B42"/>
</svg>
