<svg width="25" height="24" viewBox="0 0 25 24" fill="none" xmlns="http://www.w3.org/2000/svg">
<path d="M10.4546 19.5V18H5.45459C4.90459 18 4.40459 17.78 4.04459 17.41C3.67459 17.05 3.45459 16.55 3.45459 16C3.45459 14.97 4.25459 14.11 5.26459 14.01C5.32459 14 5.38459 14 5.45459 14H20.4546C20.5246 14 20.5846 14 20.6446 14.01C21.1246 14.05 21.5446 14.26 21.8646 14.59C22.2746 14.99 22.4946 15.56 22.4446 16.18C22.3546 17.23 21.4046 18 20.3446 18H15.4546V19.5C15.4546 20.88 14.3346 22 12.9546 22C11.5746 22 10.4546 20.88 10.4546 19.5Z" fill="#211B42" fill-opacity="0.6"/>
<path opacity="0.4" d="M21.1245 5.3L20.6445 14.01C20.5845 14 20.5245 14 20.4545 14H5.45451C5.38451 14 5.32451 14 5.26451 14.01L4.78451 5.3C4.60451 3.53 5.99451 2 7.76451 2H18.1445C19.9145 2 21.3045 3.53 21.1245 5.3Z" fill="#211B42" fill-opacity="0.6"/>
<path d="M9.69458 2V7C9.69458 7.41 9.35458 7.75 8.94458 7.75C8.53458 7.75 8.19458 7.41 8.19458 7V2H9.69458Z" fill="#211B42" fill-opacity="0.6"/>
<path d="M13.7046 2V4C13.7046 4.41 13.3646 4.75 12.9546 4.75C12.5446 4.75 12.2046 4.41 12.2046 4V2H13.7046Z" fill="#211B42" fill-opacity="0.6"/>
</svg>
