<svg width="38" height="48" viewBox="0 0 38 48" fill="none" xmlns="http://www.w3.org/2000/svg">
<g opacity="0.2">
<path d="M34.7858 15.1492V25.4408H3.16663V15.1492C3.16663 11.3017 6.30163 8.16667 10.1491 8.16667H27.8033C31.6508 8.16667 34.7858 11.3017 34.7858 15.1492Z" fill="#6D5FC9"/>
<path d="M3.16663 25.4567V25.7733C3.16663 29.6367 6.30163 32.7558 10.1491 32.7558H16.2291C17.1 32.7558 17.8125 33.4683 17.8125 34.3392V35.875C17.8125 36.7458 17.1 37.4583 16.2291 37.4583H12.3975C11.7483 37.4583 11.21 37.9967 11.21 38.6458C11.21 39.295 11.7325 39.8333 12.3975 39.8333H25.6183C26.2675 39.8333 26.8058 39.295 26.8058 38.6458C26.8058 37.9967 26.2675 37.4583 25.6183 37.4583H21.7866C20.9158 37.4583 20.2033 36.7458 20.2033 35.875V34.3392C20.2033 33.4683 20.9158 32.7558 21.7866 32.7558H27.8191C31.6825 32.7558 34.8016 29.6208 34.8016 25.7733V25.4567H3.16663Z" fill="#6D5FC9"/>
</g>
<path d="M28.223 25.5833H9.80174C8.78477 25.5833 7.91663 24.8656 7.91663 24C7.91663 23.1344 8.73516 22.4167 9.75213 22.4167H28.223C29.24 22.4167 30.0833 23.1344 30.0833 24C30.0833 24.8656 29.24 25.5833 28.223 25.5833Z" fill="#6D5FC9"/>
<path d="M28.6584 19.25H22.0084C21.2294 19.25 20.5834 18.5322 20.5834 17.6667C20.5834 16.8011 21.2294 16.0833 22.0084 16.0833H28.6584C29.4374 16.0833 30.0834 16.8011 30.0834 17.6667C30.0834 18.5322 29.4374 19.25 28.6584 19.25Z" fill="#6D5FC9"/>
<path d="M15.8255 19.25C14.959 19.25 14.25 18.5375 14.25 17.6667C14.25 16.7958 14.9432 16.0833 15.8255 16.0833H15.8412C16.7077 16.0833 17.4167 16.7958 17.4167 17.6667C17.4167 18.5375 16.7077 19.25 15.8255 19.25Z" fill="#6D5FC9"/>
<path d="M9.49996 19.25C8.62913 19.25 7.91663 18.5375 7.91663 17.6667C7.91663 16.7958 8.61329 16.0833 9.49996 16.0833C10.3708 16.0833 11.0833 16.7958 11.0833 17.6667C11.0833 18.5375 10.3866 19.25 9.49996 19.25Z" fill="#6D5FC9"/>
</svg>
