<svg width="16" height="16" viewBox="0 0 16 16" fill="none" xmlns="http://www.w3.org/2000/svg">
<path d="M13.4899 0.5H2.47578C1.11965 0.5 0.0229492 1.5967 0.0229492 2.95283V4.34434C0.0229492 4.82783 0.423893 5.22877 0.907383 5.22877C1.39087 5.22877 1.79182 4.82783 1.79182 4.34434V2.95283C1.79182 2.57547 2.09842 2.26887 2.47578 2.26887H7.09842V13.7311H4.99936C4.51587 13.7311 4.11493 14.1321 4.11493 14.6156C4.11493 15.0991 4.51587 15.5 4.99936 15.5H10.9781C11.4616 15.5 11.8626 15.0991 11.8626 14.6156C11.8626 14.1321 11.4616 13.7311 10.9781 13.7311H8.87908V2.26887H13.5017C13.8791 2.26887 14.1857 2.57547 14.1857 2.95283V4.34434C14.1857 4.82783 14.5866 5.22877 15.0701 5.22877C15.5536 5.22877 15.9546 4.82783 15.9546 4.34434V2.95283C15.9428 1.60849 14.8461 0.5 13.4899 0.5Z" fill="#211B42" fill-opacity="0.6"/>
</svg>
