<svg width="25" height="24" viewBox="0 0 25 24" fill="none" xmlns="http://www.w3.org/2000/svg">
<path opacity="0.2" d="M13.5 3.25H7.5C4.08 3.25 2.75 4.58 2.75 8V16C2.75 18.3 4 20.75 7.5 20.75H13.5C16.92 20.75 18.25 19.42 18.25 16V8C18.25 4.58 16.92 3.25 13.5 3.25Z" fill="#211B42" fill-opacity="0.6"/>
<path d="M12 11.38C13.0383 11.38 13.88 10.5383 13.88 9.5C13.88 8.4617 13.0383 7.62 12 7.62C10.9617 7.62 10.12 8.4617 10.12 9.5C10.12 10.5383 10.9617 11.38 12 11.38Z" fill="#211B42" fill-opacity="0.6"/>
<path d="M22.15 6.16999C21.74 5.95999 20.88 5.71999 19.71 6.53999L18.23 7.57999C18.24 7.71999 18.25 7.84999 18.25 7.99999V16C18.25 16.15 18.23 16.28 18.23 16.42L19.71 17.46C20.33 17.9 20.87 18.04 21.3 18.04C21.67 18.04 21.96 17.94 22.15 17.84C22.56 17.63 23.25 17.06 23.25 15.63V8.37999C23.25 6.94999 22.56 6.37999 22.15 6.16999Z" fill="#211B42" fill-opacity="0.6"/>
</svg>
